<?xml version="1.0" encoding="UTF-8"?>
<svg id="Layer_1" xmlns="http://www.w3.org/2000/svg" version="1.1" viewBox="0 0 147 41">
  <!-- Generator: Adobe Illustrator 29.8.4, SVG Export Plug-In . SVG Version: 2.1.1 Build 6)  -->
  <defs>
    <style>
      .st0 {
        fill: #96c93d;
      }

      .st1 {
        fill: #ff601f;
      }
    </style>
  </defs>
  <path class="st1" d="M6.96,20.31v10.36H2.85v-9.53c0-4.63,2.31-6.93,6.91-6.93,2.07,0,3.65.46,4.81,1.38,1.16-.89,2.74-1.32,4.81-1.32,4.6,0,6.88,2.3,6.85,6.93v9.53h-2.1c-1.34-.09-2.01-.74-2.01-2.02v-8.34c-.09-1.69-1-2.51-2.8-2.51s-2.71.83-2.74,2.51v10.3h-4.08v-10.36c-.09-1.69-1-2.51-2.8-2.51s-2.71.83-2.74,2.51"/>
  <path class="st1" d="M43.11,22.64c0,5.58-2.47,8.4-7.34,8.4s-7.31-2.82-7.31-8.4,2.44-8.43,7.31-8.43,7.34,2.79,7.34,8.43M32.57,22.64c.03,3.16,1.1,4.75,3.17,4.75s3.11-1.66,3.14-4.87c0-3.16-1.04-4.72-3.11-4.72s-3.2,1.62-3.2,4.84"/>
  <path class="st1" d="M56.72,30.67c-1.34-.09-2.01-.74-2.01-2.02v-8.34c-.09-1.69-1-2.51-2.8-2.51s-2.71.83-2.74,2.51v10.36h-4.11v-9.53c0-4.63,2.31-6.93,6.91-6.93s6.85,2.3,6.82,6.93v9.53h-2.07Z"/>
  <path class="st1" d="M75.15,22.64c0,5.58-2.47,8.4-7.34,8.4s-7.31-2.82-7.31-8.4,2.44-8.43,7.31-8.43,7.34,2.79,7.34,8.43M64.61,22.64c.03,3.16,1.1,4.75,3.17,4.75s3.11-1.66,3.14-4.87c0-3.16-1.04-4.72-3.11-4.72s-3.2,1.62-3.2,4.84"/>
  <path class="st1" d="M84.46,31.04c-4.87,0-7.37-2.82-7.49-8.4,0-5.55,2.47-8.34,7.43-8.43,3.9,0,6.21,1.75,6.91,5.27h-4.42c-.49-1.1-1.34-1.69-2.62-1.69-2.13,0-3.2,1.62-3.2,4.84s1.13,4.84,3.38,4.81c.94,0,1.77-.4,2.44-1.16.4-.4.85-.58,1.37-.58h3.04c-.73,3.31-3.11,5.43-6.85,5.33"/>
  <path class="st1" d="M100.63,31.04c-4.87-.15-7.31-3-7.31-8.52s2.47-8.28,7.37-8.31c5.12,0,7.52,3.16,7.22,9.5h-10.41c.15,2.48,1.22,3.74,3.2,3.74.94,0,1.83-.4,2.62-1.16.37-.4.82-.58,1.37-.58h2.98c-.88,3.43-3.08,5.33-7.03,5.33M97.56,20.8h6.06c-.24-2.15-1.25-3.25-2.98-3.25s-2.77,1.1-3.08,3.25"/>
  <path class="st1" d="M113.85,34.99c0,1.35-.67,2.02-2.01,2.02h-2.04v-15.51c.21-4.84,2.71-7.23,7.55-7.23s7.49,2.73,7.49,8.18-2.13,8.37-6.43,8.52c-2.01,0-3.53-.83-4.57-2.51v6.53ZM117.29,27.33c2.19,0,3.32-1.56,3.41-4.69,0-3.28-1.16-4.9-3.47-4.9s-3.41,1.62-3.38,4.9c.12,3.13,1.25,4.69,3.44,4.69"/>
  <path class="st1" d="M131.21,17.37h-.43v8.98c0,.67.4,1.04,1.19,1.04h1.25v3.1c-1.31.12-2.74.12-4.26-.03-1.52-.15-2.25-1.1-2.22-2.91V9.83h2.1c1.07,0,1.95.98,1.95,2.05v2.57h2.44v.89c0,1.16-.88,2.02-2.01,2.02"/>
  <path class="st1" d="M139.98,12.06c-.8,0-1.49-.8-2.17-2.5-1.06,1.68-2.11,2.5-3.18,2.5-.47,0-.88-.12-1.22-.37l-.49-.35,1.69-1.66.35.35c.08.08.14.09.19.09.18,0,.7-.15,1.56-1.56l.43-.71-.16-.42c-.17-.44-.26-.68-.28-.72l-.37-.83c-.17-.39-.29-.54-.35-.6-.08.05-.23.25-.36.68l-.15.51-.49-.18c-.51-.19-.56-.57-.56-.72,0-.46.23-.93.69-1.45.48-.54.93-.8,1.38-.8.77,0,1.42.73,2.08,2.35,1.08-1.6,2-2.35,2.88-2.35.27,0,.56.07.89.21l.66.29-1.65,1.74-.29-.09c-.06-.02-.11-.03-.14-.04-.12,0-.63.13-1.6,1.75l-.1.17.1.26c.75,2.08,1.16,2.46,1.26,2.53.16-.02.31-.21.43-.55l.22-.59.52.34c.37.24.45.52.45.71,0,.42-.25.84-.8,1.32-.52.45-.98.68-1.41.68"/>
  <path class="st0" d="M139.98,12.06c-.86,0-1.59-.92-2.32-2.9l-.22-.58-.2-.48-.25-.66c-.17-.44-.26-.68-.28-.72l-.37-.83c-.17-.39-.29-.54-.35-.6-.08.05-.23.25-.36.68l-.15.51-.49-.18c-.51-.19-.56-.57-.56-.72,0-.46.23-.93.69-1.45.48-.54.93-.8,1.38-.8.84,0,1.55.88,2.28,2.86l.16.41.2.55.18.48c.75,2.08,1.16,2.46,1.26,2.53.16-.02.31-.21.43-.55l.22-.59.52.34c.37.24.45.52.45.71,0,.42-.25.84-.8,1.32-.52.45-.98.68-1.41.68"/>
  <path class="st0" d="M144.08,5.32v-1.03h.45c.09,0,.16,0,.21.03.05.02.09.05.11.1.03.05.04.1.04.16,0,.07-.02.14-.07.19-.05.05-.12.08-.22.1.04.02.06.03.08.05.04.04.08.08.11.14l.18.28h-.17l-.14-.21c-.04-.06-.07-.11-.1-.14-.03-.03-.05-.06-.07-.07-.02-.01-.04-.02-.06-.03-.02,0-.04,0-.08,0h-.16v.46h-.14ZM144.21,4.74h.29c.06,0,.11,0,.15-.02.03-.01.06-.03.08-.06.02-.03.03-.06.03-.09,0-.05-.02-.09-.05-.12-.04-.03-.09-.05-.17-.05h-.32v.34Z"/>
  <path class="st0" d="M144.53,5.89c-.6,0-1.08-.49-1.08-1.09s.48-1.09,1.08-1.09,1.08.49,1.08,1.09-.48,1.09-1.08,1.09M144.53,3.82c-.54,0-.98.44-.98.99s.44.99.98.99.98-.44.98-.99-.44-.99-.98-.99"/>
</svg>